<mxfile host="app.diagrams.net" modified="2021-03-23T11:32:35.588Z" agent="5.0 (Windows NT 10.0; Win64; x64) AppleWebKit/537.36 (KHTML, like Gecko) Chrome/89.0.4389.82 Safari/537.36" etag="ie-a7e8plIu8JXOBLc9r" version="14.4.3" type="github">
  <diagram id="-Z8bIJTiFb0p_UI_cMPm" name="Page-1">
    <mxGraphModel dx="2206" dy="1875" grid="1" gridSize="10" guides="1" tooltips="1" connect="1" arrows="1" fold="1" page="1" pageScale="1" pageWidth="827" pageHeight="1169" math="0" shadow="0">
      <root>
        <mxCell id="0" />
        <mxCell id="1" parent="0" />
        <mxCell id="WA8TjEvez2WG6Y-DtgeP-24" value="" style="group" parent="1" vertex="1" connectable="0">
          <mxGeometry x="140" y="120" width="830" height="720" as="geometry" />
        </mxCell>
        <mxCell id="CEd4MnH_nKvLxxQv-VEu-45" value="" style="rounded=0;whiteSpace=wrap;html=1;" vertex="1" parent="WA8TjEvez2WG6Y-DtgeP-24">
          <mxGeometry x="-15" y="-130" width="795" height="480" as="geometry" />
        </mxCell>
        <mxCell id="CEd4MnH_nKvLxxQv-VEu-42" style="edgeStyle=orthogonalEdgeStyle;rounded=1;orthogonalLoop=1;jettySize=auto;html=1;" edge="1" parent="WA8TjEvez2WG6Y-DtgeP-24" source="WA8TjEvez2WG6Y-DtgeP-6" target="CEd4MnH_nKvLxxQv-VEu-6">
          <mxGeometry relative="1" as="geometry" />
        </mxCell>
        <mxCell id="CEd4MnH_nKvLxxQv-VEu-43" style="edgeStyle=orthogonalEdgeStyle;rounded=1;orthogonalLoop=1;jettySize=auto;html=1;entryX=0.5;entryY=0;entryDx=0;entryDy=0;" edge="1" parent="WA8TjEvez2WG6Y-DtgeP-24" source="WA8TjEvez2WG6Y-DtgeP-6" target="WA8TjEvez2WG6Y-DtgeP-15">
          <mxGeometry relative="1" as="geometry" />
        </mxCell>
        <mxCell id="WA8TjEvez2WG6Y-DtgeP-6" value="Drink" style="rounded=0;whiteSpace=wrap;html=1;sketch=0;" parent="WA8TjEvez2WG6Y-DtgeP-24" vertex="1">
          <mxGeometry x="219" y="70" width="120" height="60" as="geometry" />
        </mxCell>
        <mxCell id="WA8TjEvez2WG6Y-DtgeP-31" value="GlutenFree" style="text;html=1;strokeColor=none;fillColor=none;align=center;verticalAlign=middle;whiteSpace=wrap;rounded=0;sketch=0;" parent="WA8TjEvez2WG6Y-DtgeP-24" vertex="1">
          <mxGeometry x="470" y="300" width="40" height="20" as="geometry" />
        </mxCell>
        <mxCell id="CEd4MnH_nKvLxxQv-VEu-44" style="edgeStyle=orthogonalEdgeStyle;rounded=1;orthogonalLoop=1;jettySize=auto;html=1;" edge="1" parent="WA8TjEvez2WG6Y-DtgeP-24" source="WA8TjEvez2WG6Y-DtgeP-5" target="WA8TjEvez2WG6Y-DtgeP-31">
          <mxGeometry relative="1" as="geometry" />
        </mxCell>
        <mxCell id="WA8TjEvez2WG6Y-DtgeP-5" value="Dessert" style="rounded=0;whiteSpace=wrap;html=1;sketch=0;" parent="WA8TjEvez2WG6Y-DtgeP-24" vertex="1">
          <mxGeometry x="430" y="70" width="120" height="60" as="geometry" />
        </mxCell>
        <mxCell id="WA8TjEvez2WG6Y-DtgeP-15" value="Alcoholic" style="rounded=0;whiteSpace=wrap;html=1;sketch=0;" parent="WA8TjEvez2WG6Y-DtgeP-24" vertex="1">
          <mxGeometry x="280" y="210" width="120" height="60" as="geometry" />
        </mxCell>
        <mxCell id="CEd4MnH_nKvLxxQv-VEu-35" value="MainCourse" style="rounded=0;whiteSpace=wrap;html=1;sketch=0;" vertex="1" parent="WA8TjEvez2WG6Y-DtgeP-24">
          <mxGeometry y="70" width="120" height="60" as="geometry" />
        </mxCell>
        <mxCell id="CEd4MnH_nKvLxxQv-VEu-21" value="" style="group" vertex="1" connectable="0" parent="WA8TjEvez2WG6Y-DtgeP-24">
          <mxGeometry x="154" y="210" width="120" height="60" as="geometry" />
        </mxCell>
        <mxCell id="CEd4MnH_nKvLxxQv-VEu-6" value="" style="rounded=0;whiteSpace=wrap;html=1;" vertex="1" parent="CEd4MnH_nKvLxxQv-VEu-21">
          <mxGeometry width="120" height="60" as="geometry" />
        </mxCell>
        <mxCell id="CEd4MnH_nKvLxxQv-VEu-20" value="Soft drink" style="text;html=1;strokeColor=none;fillColor=none;align=center;verticalAlign=middle;whiteSpace=wrap;rounded=0;" vertex="1" parent="CEd4MnH_nKvLxxQv-VEu-21">
          <mxGeometry x="40" y="20" width="40" height="20" as="geometry" />
        </mxCell>
        <mxCell id="WA8TjEvez2WG6Y-DtgeP-8" value="MenuItem" style="rounded=0;whiteSpace=wrap;html=1;sketch=0;" parent="WA8TjEvez2WG6Y-DtgeP-24" vertex="1">
          <mxGeometry x="370" y="-80" width="120" height="60" as="geometry" />
        </mxCell>
        <mxCell id="CEd4MnH_nKvLxxQv-VEu-1" value="" style="group" vertex="1" connectable="0" parent="1">
          <mxGeometry x="-40" y="285" width="717.495" height="250" as="geometry" />
        </mxCell>
        <mxCell id="WA8TjEvez2WG6Y-DtgeP-4" value="" style="group" parent="CEd4MnH_nKvLxxQv-VEu-1" vertex="1" connectable="0">
          <mxGeometry x="438.75" y="-530" width="278.745" height="301.57" as="geometry" />
        </mxCell>
        <mxCell id="CEd4MnH_nKvLxxQv-VEu-32" value="" style="group" vertex="1" connectable="0" parent="WA8TjEvez2WG6Y-DtgeP-4">
          <mxGeometry x="-10.005000000000024" y="94.38499999999999" width="288.75" height="108.44000000000003" as="geometry" />
        </mxCell>
        <mxCell id="CEd4MnH_nKvLxxQv-VEu-33" value="" style="group" vertex="1" connectable="0" parent="CEd4MnH_nKvLxxQv-VEu-32">
          <mxGeometry x="-189.73999999999998" y="5.620000000000007" width="288.75" height="108.44000000000003" as="geometry" />
        </mxCell>
        <mxCell id="WA8TjEvez2WG6Y-DtgeP-29" value="" style="rounded=0;whiteSpace=wrap;html=1;sketch=0;rotation=90;" parent="CEd4MnH_nKvLxxQv-VEu-33" vertex="1">
          <mxGeometry x="90.155" y="-90.155" width="108.44" height="288.75" as="geometry" />
        </mxCell>
        <mxCell id="WA8TjEvez2WG6Y-DtgeP-2" value="Main" style="rounded=0;whiteSpace=wrap;html=1;sketch=0;" parent="CEd4MnH_nKvLxxQv-VEu-33" vertex="1">
          <mxGeometry x="10.004999999999995" y="25.615000000000002" width="120" height="60" as="geometry" />
        </mxCell>
        <mxCell id="WA8TjEvez2WG6Y-DtgeP-1" value="Menu" style="rounded=0;whiteSpace=wrap;html=1;sketch=0;" parent="CEd4MnH_nKvLxxQv-VEu-33" vertex="1">
          <mxGeometry x="159.995" y="25.61500000000001" width="120" height="60" as="geometry" />
        </mxCell>
        <mxCell id="CEd4MnH_nKvLxxQv-VEu-31" style="edgeStyle=orthogonalEdgeStyle;rounded=1;orthogonalLoop=1;jettySize=auto;html=1;entryX=0;entryY=0.5;entryDx=0;entryDy=0;" edge="1" parent="CEd4MnH_nKvLxxQv-VEu-33" source="WA8TjEvez2WG6Y-DtgeP-2" target="WA8TjEvez2WG6Y-DtgeP-1">
          <mxGeometry relative="1" as="geometry" />
        </mxCell>
        <mxCell id="CEd4MnH_nKvLxxQv-VEu-38" style="edgeStyle=orthogonalEdgeStyle;rounded=1;orthogonalLoop=1;jettySize=auto;html=1;entryX=0.5;entryY=0;entryDx=0;entryDy=0;" edge="1" parent="1" source="WA8TjEvez2WG6Y-DtgeP-1" target="CEd4MnH_nKvLxxQv-VEu-35">
          <mxGeometry relative="1" as="geometry">
            <Array as="points">
              <mxPoint x="419" y="140" />
              <mxPoint x="200" y="140" />
            </Array>
          </mxGeometry>
        </mxCell>
        <mxCell id="CEd4MnH_nKvLxxQv-VEu-39" style="edgeStyle=orthogonalEdgeStyle;rounded=1;orthogonalLoop=1;jettySize=auto;html=1;entryX=0.5;entryY=0;entryDx=0;entryDy=0;" edge="1" parent="1" source="WA8TjEvez2WG6Y-DtgeP-1" target="WA8TjEvez2WG6Y-DtgeP-5">
          <mxGeometry relative="1" as="geometry">
            <Array as="points">
              <mxPoint x="419" y="140" />
              <mxPoint x="630" y="140" />
            </Array>
          </mxGeometry>
        </mxCell>
        <mxCell id="CEd4MnH_nKvLxxQv-VEu-40" style="edgeStyle=orthogonalEdgeStyle;rounded=1;orthogonalLoop=1;jettySize=auto;html=1;exitX=0.5;exitY=1;exitDx=0;exitDy=0;entryX=0.5;entryY=0;entryDx=0;entryDy=0;" edge="1" parent="1" source="WA8TjEvez2WG6Y-DtgeP-1" target="WA8TjEvez2WG6Y-DtgeP-6">
          <mxGeometry relative="1" as="geometry">
            <mxPoint x="419" y="190" as="targetPoint" />
          </mxGeometry>
        </mxCell>
        <mxCell id="WA8TjEvez2WG6Y-DtgeP-17" value="Name" style="rounded=0;whiteSpace=wrap;html=1;sketch=0;" parent="1" vertex="1">
          <mxGeometry x="707" y="10" width="120" height="60" as="geometry" />
        </mxCell>
        <mxCell id="WA8TjEvez2WG6Y-DtgeP-22" style="edgeStyle=orthogonalEdgeStyle;curved=0;rounded=1;sketch=0;orthogonalLoop=1;jettySize=auto;html=1;entryX=0;entryY=0.5;entryDx=0;entryDy=0;" parent="1" source="WA8TjEvez2WG6Y-DtgeP-8" target="WA8TjEvez2WG6Y-DtgeP-17" edge="1">
          <mxGeometry relative="1" as="geometry" />
        </mxCell>
        <mxCell id="WA8TjEvez2WG6Y-DtgeP-16" value="Price" style="rounded=0;whiteSpace=wrap;html=1;sketch=0;" parent="1" vertex="1">
          <mxGeometry x="707" y="90" width="120" height="60" as="geometry" />
        </mxCell>
        <mxCell id="WA8TjEvez2WG6Y-DtgeP-23" style="edgeStyle=orthogonalEdgeStyle;curved=0;rounded=1;sketch=0;orthogonalLoop=1;jettySize=auto;html=1;entryX=0;entryY=0.5;entryDx=0;entryDy=0;" parent="1" source="WA8TjEvez2WG6Y-DtgeP-8" target="WA8TjEvez2WG6Y-DtgeP-16" edge="1">
          <mxGeometry relative="1" as="geometry" />
        </mxCell>
        <mxCell id="CEd4MnH_nKvLxxQv-VEu-41" style="edgeStyle=orthogonalEdgeStyle;rounded=1;orthogonalLoop=1;jettySize=auto;html=1;" edge="1" parent="1" source="WA8TjEvez2WG6Y-DtgeP-8">
          <mxGeometry relative="1" as="geometry">
            <mxPoint x="420" y="70" as="targetPoint" />
          </mxGeometry>
        </mxCell>
        <mxCell id="WA8TjEvez2WG6Y-DtgeP-26" value="Model" style="text;html=1;strokeColor=none;fillColor=none;align=center;verticalAlign=middle;whiteSpace=wrap;rounded=0;sketch=0;" parent="1" vertex="1">
          <mxGeometry x="870" y="-10" width="40" height="20" as="geometry" />
        </mxCell>
      </root>
    </mxGraphModel>
  </diagram>
</mxfile>
